<?xml version="1.0" standalone="no"?>
<!DOCTYPE svg PUBLIC "-//W3C//DTD SVG 20010904//EN"
 "http://www.w3.org/TR/2001/REC-SVG-20010904/DTD/svg10.dtd">
<svg version="1.0" xmlns="http://www.w3.org/2000/svg"
 width="768.000000pt" height="768.000000pt" viewBox="0 0 768.000000 768.000000"
 preserveAspectRatio="xMidYMid meet">
<metadata>
Created by potrace 1.10, written by Peter Selinger 2001-2011
</metadata>
<g transform="translate(0.000000,768.000000) scale(0.100000,-0.100000)"
fill="#3d4db7" stroke="none">
<path d="M3610 7621 c-8 -5 -37 -14 -65 -19 -62 -12 -153 -45 -205 -73 -8 -5
-35 -19 -60 -31 -25 -13 -47 -26 -50 -30 -3 -4 -17 -12 -30 -18 -14 -5 -47
-24 -75 -41 -27 -16 -61 -35 -75 -42 -14 -6 -31 -17 -38 -24 -7 -7 -19 -13
-26 -13 -8 0 -19 -7 -26 -15 -7 -8 -21 -15 -31 -15 -11 0 -19 -4 -19 -8 0 -4
-15 -15 -32 -23 -49 -22 -122 -63 -128 -71 -3 -4 -17 -12 -30 -18 -14 -5 -47
-24 -75 -41 -27 -16 -61 -35 -75 -42 -14 -6 -27 -14 -30 -18 -3 -3 -18 -12
-35 -21 -16 -8 -59 -31 -95 -50 -36 -20 -81 -44 -100 -54 -19 -11 -37 -22 -40
-26 -3 -4 -17 -12 -30 -18 -14 -5 -47 -24 -75 -41 -27 -16 -61 -35 -75 -42
-14 -6 -27 -14 -30 -18 -3 -3 -27 -16 -55 -30 -27 -13 -52 -27 -55 -30 -5 -6
-17 -13 -107 -59 -26 -14 -50 -28 -53 -32 -3 -4 -17 -12 -30 -18 -14 -5 -47
-24 -75 -41 -27 -16 -61 -35 -75 -42 -14 -6 -27 -15 -30 -19 -3 -4 -17 -12
-30 -17 -14 -6 -32 -15 -40 -20 -8 -5 -22 -12 -30 -15 -8 -4 -37 -20 -65 -36
-27 -17 -61 -36 -75 -43 -14 -6 -31 -17 -38 -24 -7 -7 -18 -13 -23 -13 -5 0
-37 -17 -72 -39 -35 -21 -73 -42 -85 -45 -12 -4 -22 -11 -22 -16 0 -4 -12 -13
-27 -19 -16 -6 -35 -15 -43 -20 -8 -5 -22 -12 -30 -15 -8 -4 -37 -20 -65 -36
-27 -17 -61 -36 -75 -43 -14 -6 -31 -17 -38 -24 -7 -7 -17 -13 -22 -13 -5 0
-43 -20 -83 -45 -41 -25 -80 -45 -86 -45 -6 0 -11 -3 -11 -8 0 -4 -16 -16 -35
-26 -92 -50 -269 -262 -316 -378 -6 -16 -15 -28 -20 -28 -5 0 -9 -11 -9 -24 0
-13 -7 -29 -15 -36 -8 -7 -15 -21 -15 -31 0 -10 -5 -30 -12 -46 -43 -102 -42
-65 -42 -1723 0 -1658 -1 -1621 42 -1723 7 -16 12 -36 12 -45 0 -9 7 -26 15
-36 8 -11 15 -28 15 -38 0 -10 4 -18 9 -18 5 0 14 -12 20 -27 45 -114 202
-305 304 -371 23 -15 44 -29 47 -32 3 -3 16 -11 30 -17 14 -7 48 -26 75 -42
28 -17 61 -36 75 -41 13 -6 27 -14 30 -18 3 -4 16 -13 30 -19 14 -7 48 -26 75
-42 28 -17 59 -35 71 -40 11 -5 50 -27 85 -48 35 -21 86 -49 112 -63 88 -45
102 -53 107 -59 3 -4 16 -12 30 -18 14 -7 48 -26 75 -42 28 -17 61 -36 75 -41
13 -6 27 -14 30 -18 6 -8 79 -49 128 -71 17 -8 32 -19 32 -23 0 -4 7 -8 16 -8
9 0 27 -9 41 -20 14 -11 32 -20 39 -20 8 0 14 -4 14 -8 0 -4 12 -13 28 -19 15
-7 50 -25 77 -42 28 -17 61 -36 75 -41 13 -6 27 -14 30 -18 3 -4 16 -13 30
-19 14 -7 48 -26 75 -43 28 -16 57 -32 65 -36 8 -3 22 -10 30 -15 8 -5 24 -13
36 -18 19 -8 134 -76 174 -101 8 -6 26 -15 40 -21 13 -5 27 -13 30 -17 3 -4
25 -17 50 -30 25 -13 72 -39 105 -58 33 -19 72 -39 88 -45 15 -6 27 -15 27
-20 0 -5 9 -9 19 -9 11 0 26 -7 35 -15 8 -8 20 -15 26 -15 6 0 21 -5 33 -12
42 -24 185 -73 241 -83 21 -3 46 -10 55 -15 70 -37 538 -49 656 -17 245 66
409 206 498 427 25 62 47 137 47 158 0 11 7 49 16 84 24 91 24 644 0 767 -9
46 -16 102 -16 125 0 22 -7 59 -15 81 -8 22 -14 56 -15 76 0 20 -7 53 -15 72
-8 20 -15 50 -15 66 0 16 -4 32 -9 35 -5 4 -12 24 -16 47 -4 22 -13 53 -21 67
-8 15 -14 34 -14 43 0 9 -7 30 -15 45 -8 16 -15 37 -15 46 0 9 -4 19 -9 22 -5
3 -12 18 -16 33 -5 24 -81 180 -119 248 -142 254 -338 453 -540 552 -39 19
-79 39 -88 44 -10 5 -24 9 -32 9 -8 0 -27 5 -43 12 -26 11 -101 26 -233 47
-30 5 -66 13 -80 19 -14 5 -46 12 -72 16 -26 4 -50 11 -53 17 -4 5 -18 9 -33
9 -15 0 -40 7 -56 15 -15 8 -38 15 -50 15 -11 0 -30 7 -40 15 -11 8 -28 15
-39 15 -10 0 -31 6 -45 13 -15 8 -43 21 -62 29 -217 94 -387 198 -559 343 -52
43 -191 182 -234 235 -42 50 -160 223 -194 285 -26 46 -100 196 -118 240 -7
17 -18 41 -24 55 -21 48 -43 115 -48 145 -3 17 -9 35 -14 40 -4 6 -11 31 -15
55 -4 25 -10 50 -15 55 -4 6 -11 31 -15 55 -3 25 -13 70 -20 100 -8 30 -14 72
-14 93 0 21 -5 47 -10 57 -10 19 -24 174 -37 417 l-6 122 27 12 c22 10 78 10
274 1 373 -19 512 -29 562 -41 25 -6 68 -11 95 -11 28 0 66 -5 85 -10 19 -6
70 -15 112 -20 42 -5 85 -13 95 -19 10 -6 44 -13 75 -16 32 -4 60 -11 63 -16
4 -5 18 -9 33 -9 24 0 63 -10 157 -42 17 -5 44 -14 60 -18 53 -15 120 -41 130
-51 5 -5 15 -9 23 -9 22 0 201 -84 257 -120 17 -11 37 -23 45 -27 79 -37 326
-238 345 -281 5 -12 13 -22 17 -22 10 0 108 -126 108 -139 0 -6 3 -11 8 -11 4
0 19 -21 32 -47 14 -26 31 -54 38 -61 6 -7 12 -22 12 -33 0 -10 4 -19 9 -19 5
0 13 -10 16 -22 4 -13 12 -36 20 -53 48 -108 66 -160 72 -205 3 -19 9 -40 14
-45 4 -6 12 -39 18 -73 5 -34 13 -67 16 -72 4 -6 11 -50 16 -98 5 -48 13 -118
18 -157 11 -78 14 -275 5 -299 -9 -23 -32 -19 -40 7 -3 12 -19 41 -35 65 -16
24 -29 45 -29 47 0 4 -85 129 -101 149 -5 6 -25 29 -44 51 -19 22 -35 44 -35
49 0 16 -255 262 -322 311 -38 27 -68 52 -68 57 0 4 -6 8 -14 8 -7 0 -29 13
-47 30 -19 16 -39 30 -46 30 -6 0 -18 6 -25 14 -8 7 -44 29 -80 49 -37 20 -75
41 -85 46 -16 9 -74 34 -138 60 -11 5 -37 16 -58 25 -21 9 -42 16 -48 16 -6 0
-26 7 -45 16 -59 28 -57 10 3 -32 57 -40 152 -118 243 -199 125 -111 423 -419
505 -520 22 -28 43 -52 46 -55 13 -11 229 -299 229 -305 0 -4 14 -24 30 -45
17 -21 30 -41 30 -45 0 -4 12 -24 28 -44 15 -20 33 -45 39 -56 7 -11 39 -62
70 -113 76 -122 111 -181 126 -212 6 -14 17 -31 24 -38 7 -7 13 -19 13 -26 0
-8 7 -19 15 -26 8 -7 15 -19 15 -27 0 -7 5 -19 11 -26 11 -13 36 -59 116 -219
54 -108 127 -266 159 -343 6 -16 19 -46 27 -65 42 -95 47 -109 47 -123 0 -9 4
-18 9 -22 5 -3 13 -20 17 -37 3 -18 10 -39 15 -48 11 -20 39 -98 46 -130 3
-14 9 -29 13 -35 5 -5 11 -28 16 -49 4 -22 13 -51 20 -65 8 -14 14 -36 14 -47
0 -12 7 -38 15 -57 8 -20 15 -50 15 -66 0 -16 4 -32 9 -36 6 -3 13 -27 16 -53
4 -26 11 -61 16 -78 5 -17 14 -59 19 -95 12 -85 35 -180 49 -207 6 -11 11 -30
11 -41 0 -12 4 -21 9 -21 5 0 14 -12 20 -27 7 -16 17 -38 24 -50 14 -23 105
-123 112 -123 2 0 24 -13 48 -30 25 -16 50 -30 57 -30 7 0 26 -6 43 -14 154
-66 466 -37 659 61 14 7 33 13 42 13 9 0 16 4 16 9 0 5 10 13 22 17 11 3 55
26 97 51 42 24 83 48 91 53 8 5 44 24 80 43 113 60 135 72 140 79 3 4 17 12
30 18 14 5 48 24 75 41 28 16 61 35 75 42 14 6 27 14 30 18 5 6 20 15 107 59
26 13 66 36 88 50 71 44 80 49 95 55 8 4 22 10 30 15 8 5 32 18 53 30 57 30
142 95 195 148 78 78 188 232 206 290 4 12 12 22 17 22 5 0 9 8 9 18 0 10 7
27 15 38 8 10 15 27 15 36 0 9 5 29 12 45 43 102 42 65 42 1723 0 1658 1 1621
-42 1723 -7 16 -12 36 -12 46 0 10 -7 24 -15 31 -8 7 -15 23 -15 36 0 13 -4
24 -9 24 -5 0 -14 12 -20 28 -47 116 -224 328 -316 378 -19 10 -35 22 -35 26
0 5 -5 8 -11 8 -6 0 -45 20 -86 45 -40 25 -78 45 -83 45 -5 0 -15 6 -22 13 -7
7 -24 18 -38 24 -14 7 -47 26 -75 42 -27 16 -75 42 -105 57 -30 15 -57 30 -60
34 -5 7 -106 63 -175 98 -16 9 -32 18 -35 21 -3 4 -16 12 -30 18 -14 7 -47 26
-75 42 -27 17 -59 35 -71 40 -11 5 -51 28 -88 50 -36 23 -70 41 -75 41 -5 0
-16 6 -23 13 -7 6 -35 23 -63 36 -27 14 -52 27 -55 30 -3 4 -16 12 -30 18 -14
7 -47 26 -75 42 -27 17 -61 36 -75 41 -13 6 -27 14 -30 18 -3 4 -16 13 -30 19
-14 7 -47 26 -75 43 -27 16 -57 32 -65 36 -8 3 -22 10 -30 15 -8 5 -27 14 -42
20 -16 6 -28 14 -28 18 0 4 -34 25 -76 47 -124 64 -129 67 -134 73 -3 4 -16
12 -30 18 -14 7 -47 26 -75 42 -27 17 -63 37 -80 45 -16 8 -52 29 -80 45 -27
17 -62 36 -77 42 -16 6 -28 15 -28 20 0 5 -8 9 -19 9 -10 0 -24 7 -31 15 -7 8
-18 15 -26 15 -7 0 -19 6 -26 13 -7 7 -24 18 -38 24 -14 7 -47 26 -75 42 -27
17 -61 36 -75 41 -13 6 -27 14 -30 18 -6 8 -79 49 -127 71 -18 8 -33 19 -33
23 0 4 -7 8 -16 8 -9 0 -28 6 -42 14 -35 18 -83 34 -157 53 -68 18 -479 29
-505 14z m2760 -3116 c9 -11 11 -48 7 -143 -7 -159 -25 -337 -37 -377 -5 -16
-14 -59 -19 -95 -21 -123 -30 -163 -41 -174 -5 -5 -10 -21 -10 -35 0 -15 -7
-39 -15 -55 -8 -15 -15 -35 -15 -43 0 -8 -6 -27 -13 -41 -8 -15 -21 -43 -30
-62 -62 -137 -80 -169 -145 -270 -65 -100 -87 -126 -205 -243 -73 -72 -281
-227 -305 -227 -4 0 -34 -13 -67 -29 -94 -46 -132 -61 -152 -61 -10 0 -23 -4
-29 -10 -5 -5 -30 -14 -54 -19 -25 -5 -63 -14 -85 -19 -129 -32 -327 -42 -394
-21 -109 35 -183 96 -223 187 -29 65 -36 204 -14 271 9 27 16 58 16 68 0 10 7
31 15 47 8 15 15 35 15 43 0 30 93 206 152 285 68 93 176 208 195 208 7 0 13
4 13 8 0 19 205 154 253 166 30 7 37 26 10 26 -10 -1 -36 -9 -58 -20 -22 -11
-44 -19 -50 -20 -14 0 -138 -63 -153 -77 -7 -7 -18 -13 -23 -13 -20 0 -169
-119 -249 -200 -74 -75 -190 -227 -190 -250 0 -4 -7 -13 -15 -20 -8 -7 -15
-20 -15 -30 0 -20 -41 -70 -57 -70 -17 0 -23 26 -13 60 5 18 12 71 16 118 4
48 12 105 19 127 7 22 16 59 20 82 4 24 11 45 16 49 5 3 9 13 9 22 1 9 9 35
20 57 11 22 19 46 20 53 0 6 5 12 10 12 6 0 10 6 10 14 0 8 16 38 35 68 19 29
40 62 47 73 50 77 314 305 354 305 7 0 14 4 16 8 2 5 39 25 83 46 44 21 92 45
107 52 14 8 35 14 46 14 11 0 33 6 49 14 43 22 125 46 154 46 14 0 30 5 36 11
5 5 37 13 69 16 32 3 68 10 78 15 10 6 53 14 95 18 42 5 112 13 156 19 84 12
315 27 446 29 58 2 80 -2 89 -13z"/>
<path d="M5240 3900 c0 -13 11 -13 30 0 12 8 11 10 -7 10 -13 0 -23 -4 -23
-10z"/>
</g>
</svg>
