<svg id="svg" version="1.1" width="500" height="500" xmlns="http://www.w3.org/2000/svg" xmlns:xlink="http://www.w3.org/1999/xlink" style="display: block;"><g id="svgg"><path id="path0" d="M0.044 31.800 L 0.088 63.600 2.465 56.458 C 4.897 49.151,8.869 40.593,10.876 38.337 C 11.494 37.642,12.000 36.775,12.000 36.410 C 12.000 33.158,33.158 12.000,36.410 12.000 C 36.775 12.000,37.642 11.500,38.337 10.890 C 40.682 8.827,48.103 5.371,55.873 2.721 L 63.600 0.085 31.800 0.043 L 0.000 0.000 0.044 31.800 M180.379 2.360 C 182.676 6.801,182.118 34.943,179.673 38.000 L 177.753 40.400 125.476 40.822 C 70.390 41.267,72.107 41.149,64.029 45.068 C 53.671 50.093,45.497 59.793,42.345 70.800 C 40.629 76.794,40.629 323.206,42.345 329.200 C 45.392 339.840,52.810 348.842,63.200 354.508 C 71.060 358.794,69.554 358.681,125.476 359.156 L 177.753 359.600 179.673 362.000 C 182.118 365.057,182.676 393.199,180.379 397.640 L 179.159 400.000 200.332 400.000 L 221.505 400.000 220.357 397.800 C 219.023 395.241,218.669 366.300,219.933 362.977 C 221.325 359.315,222.328 359.244,276.000 358.972 C 334.476 358.677,330.789 359.120,342.905 350.936 C 347.543 347.804,351.395 343.279,354.942 336.800 C 358.984 329.415,358.800 335.934,358.800 200.000 C 358.800 64.066,358.984 70.585,354.942 63.200 C 351.395 56.721,347.543 52.196,342.905 49.064 C 330.789 40.880,334.476 41.323,276.000 41.028 C 222.328 40.756,221.325 40.685,219.933 37.023 C 218.669 33.700,219.023 4.759,220.357 2.200 L 221.505 0.000 200.332 -0.000 L 179.159 -0.000 180.379 2.360 M339.200 0.979 C 351.147 4.460,356.614 7.005,366.400 13.638 C 374.942 19.429,388.000 32.896,388.000 35.915 C 388.000 36.402,388.294 36.800,388.654 36.800 C 389.859 36.800,396.033 49.788,398.352 57.200 L 399.854 62.000 399.927 31.000 L 400.000 0.000 368.200 0.082 C 345.174 0.141,337.173 0.388,339.200 0.979 M230.000 86.392 C 236.485 87.841,242.325 89.522,246.800 91.229 C 247.680 91.564,249.660 92.290,251.200 92.842 C 265.135 97.839,291.298 116.334,294.765 123.638 C 297.106 128.573,296.138 130.189,284.015 141.557 C 269.667 155.014,269.167 155.124,259.680 146.889 C 203.080 97.753,123.220 138.613,136.331 210.000 C 142.527 243.736,169.688 265.621,205.326 265.594 C 227.194 265.577,240.998 259.937,261.446 242.662 C 269.388 235.953,269.717 236.056,282.788 249.400 C 297.990 264.920,298.096 265.645,286.647 275.734 C 269.620 290.737,252.248 299.824,231.600 304.526 C 217.630 307.708,185.996 306.744,171.322 302.690 C 168.835 302.003,165.985 301.253,164.988 301.025 C 163.992 300.796,162.980 300.292,162.741 299.904 C 162.501 299.517,161.745 299.200,161.061 299.200 C 151.860 299.200,123.855 277.823,112.636 262.236 C 91.322 232.623,85.673 183.563,99.990 152.400 C 106.789 137.601,107.939 135.616,114.798 126.833 C 119.437 120.891,122.354 117.897,130.630 110.585 C 136.945 105.006,154.764 94.783,164.400 91.212 C 183.802 84.020,210.581 82.053,230.000 86.392 M0.044 368.200 L 0.000 400.000 31.800 399.957 L 63.600 399.915 55.873 397.279 C 48.103 394.629,40.682 391.173,38.337 389.110 C 37.642 388.500,36.775 388.000,36.410 388.000 C 33.158 388.000,12.000 366.842,12.000 363.590 C 12.000 363.225,11.494 362.358,10.876 361.663 C 8.869 359.407,4.897 350.849,2.465 343.542 L 0.088 336.400 0.044 368.200 M398.435 342.200 C 396.897 348.321,389.967 363.200,388.654 363.200 C 388.294 363.200,388.000 363.598,388.000 364.085 C 388.000 367.104,374.942 380.571,366.400 386.362 C 356.614 392.995,351.147 395.540,339.200 399.021 C 337.173 399.612,345.174 399.859,368.200 399.918 L 400.000 400.000 400.000 369.200 C 400.000 352.260,399.863 338.400,399.695 338.400 C 399.527 338.400,398.960 340.110,398.435 342.200 " stroke="none" fill="#ffffff" fill-rule="evenodd"></path><path id="path1" d="M74.267 0.785 C 74.120 1.217,71.840 1.917,69.200 2.341 C 62.737 3.378,59.908 3.994,58.000 4.780 C 57.120 5.142,55.140 5.899,53.600 6.461 C 48.969 8.153,37.746 13.570,36.636 14.650 C 36.066 15.204,34.160 16.724,32.400 18.027 C 28.293 21.068,21.068 28.293,18.027 32.400 C 16.724 34.160,15.213 36.058,14.668 36.618 C 13.144 38.185,5.600 54.316,5.600 56.007 C 5.600 56.831,5.280 57.703,4.888 57.945 C 4.497 58.187,3.975 59.559,3.727 60.993 C 3.480 62.427,2.920 65.753,2.483 68.385 C 2.045 71.017,1.308 73.297,0.844 73.452 C -0.344 73.848,-0.344 326.152,0.844 326.548 C 1.308 326.703,2.045 328.983,2.483 331.615 C 2.920 334.247,3.480 337.573,3.727 339.007 C 3.975 340.441,4.497 341.813,4.888 342.055 C 5.280 342.297,5.600 343.169,5.600 343.993 C 5.600 345.684,13.144 361.815,14.668 363.382 C 15.213 363.942,16.724 365.840,18.027 367.600 C 21.068 371.707,28.293 378.932,32.400 381.973 C 34.160 383.276,36.066 384.796,36.636 385.350 C 37.746 386.430,48.969 391.847,53.600 393.539 C 55.140 394.101,57.120 394.858,58.000 395.220 C 59.908 396.006,62.737 396.622,69.200 397.659 C 71.840 398.083,74.120 398.783,74.267 399.215 C 74.437 399.717,92.569 400.000,124.623 400.000 L 174.712 400.000 176.956 397.850 L 179.200 395.701 179.200 380.028 C 179.200 365.316,179.101 364.271,177.591 362.978 C 176.105 361.705,172.101 361.600,125.293 361.600 L 74.604 361.600 68.440 359.588 C 55.525 355.372,45.238 345.430,40.654 332.734 L 38.800 327.600 38.800 200.000 L 38.800 72.400 40.654 67.266 C 45.238 54.570,55.525 44.628,68.440 40.412 L 74.604 38.400 125.293 38.400 C 172.101 38.400,176.105 38.295,177.591 37.022 C 179.101 35.729,179.200 34.684,179.200 19.972 L 179.200 4.299 176.956 2.150 L 174.712 0.000 124.623 0.000 C 92.569 0.000,74.437 0.283,74.267 0.785 M223.761 1.837 C 222.970 2.807,221.985 4.140,221.574 4.800 C 219.981 7.351,220.645 32.937,222.378 35.778 L 223.949 38.355 276.175 38.578 L 328.400 38.800 333.534 40.654 C 346.027 45.164,356.643 56.393,360.297 68.964 C 362.290 75.821,362.290 324.179,360.297 331.036 C 356.643 343.607,346.027 354.836,333.534 359.346 L 328.400 361.200 276.175 361.422 L 223.949 361.645 222.378 364.222 C 220.558 367.206,219.983 392.178,221.661 395.313 C 224.347 400.333,220.486 400.000,275.933 400.000 C 310.318 400.000,326.355 399.734,326.546 399.162 C 326.700 398.700,328.900 398.109,331.436 397.847 C 333.972 397.585,336.238 397.063,336.471 396.686 C 336.704 396.309,337.683 395.995,338.647 395.988 C 340.862 395.974,345.482 394.369,352.304 391.244 C 355.239 389.900,357.855 388.800,358.118 388.800 C 360.762 388.800,379.241 372.347,383.600 366.111 C 384.480 364.853,385.574 363.413,386.031 362.911 C 387.093 361.747,394.400 346.597,394.400 345.559 C 394.400 345.130,394.716 344.153,395.102 343.389 C 396.221 341.175,397.411 336.708,397.973 332.619 C 398.259 330.539,398.832 328.628,399.246 328.371 C 400.269 327.740,400.269 72.260,399.246 71.629 C 398.832 71.372,398.259 69.461,397.973 67.381 C 397.411 63.292,396.221 58.825,395.102 56.611 C 394.716 55.847,394.400 54.870,394.400 54.441 C 394.400 53.403,387.093 38.253,386.031 37.089 C 385.574 36.587,384.480 35.147,383.600 33.889 C 379.241 27.653,360.762 11.200,358.118 11.200 C 357.855 11.200,355.239 10.100,352.304 8.756 C 345.482 5.631,340.862 4.026,338.647 4.012 C 337.683 4.005,336.704 3.691,336.471 3.314 C 336.238 2.937,333.972 2.415,331.436 2.153 C 328.900 1.891,326.700 1.300,326.546 0.838 C 326.355 0.265,310.289 0.012,275.733 0.037 L 225.200 0.074 223.761 1.837 M188.800 88.049 C 186.380 88.401,182.420 89.096,180.000 89.593 C 177.580 90.091,174.427 90.695,172.993 90.937 C 171.559 91.179,170.187 91.697,169.945 92.088 C 169.703 92.480,168.802 92.800,167.942 92.800 C 167.082 92.800,165.753 93.136,164.989 93.547 C 164.225 93.958,159.110 96.501,153.623 99.200 C 139.368 106.210,122.985 119.390,115.812 129.620 C 110.665 136.961,107.824 141.705,105.045 147.600 C 104.008 149.800,102.808 152.225,102.380 152.989 C 101.951 153.753,101.600 155.082,101.600 155.942 C 101.600 156.802,101.240 157.728,100.800 158.000 C 100.360 158.272,100.000 159.532,100.000 160.800 C 100.000 162.068,99.688 163.299,99.306 163.534 C 98.924 163.770,98.394 165.502,98.128 167.382 C 97.861 169.262,97.101 173.860,96.438 177.600 C 94.276 189.795,95.167 210.366,98.449 224.000 C 98.926 225.980,99.509 228.773,99.746 230.207 C 99.983 231.641,100.497 233.013,100.888 233.255 C 101.280 233.497,101.600 234.398,101.600 235.258 C 101.600 236.118,101.931 237.447,102.336 238.211 C 102.741 238.975,104.188 241.940,105.551 244.800 C 108.572 251.139,109.830 253.320,114.317 260.000 C 118.222 265.813,136.183 284.000,138.019 284.000 C 138.668 284.000,139.200 284.318,139.200 284.707 C 139.200 285.095,139.830 285.632,140.600 285.899 C 141.370 286.167,143.980 287.650,146.400 289.196 C 154.023 294.064,168.524 299.988,172.840 299.996 C 173.962 299.998,175.222 300.325,175.640 300.722 C 178.980 303.897,215.564 304.525,230.000 301.656 C 232.200 301.218,235.260 300.642,236.800 300.376 C 238.340 300.109,240.320 299.605,241.200 299.255 C 242.080 298.905,244.780 297.974,247.200 297.186 C 252.830 295.352,261.679 290.708,269.918 285.263 C 276.877 280.664,278.794 279.188,285.073 273.600 C 294.986 264.778,295.458 266.461,278.000 248.373 C 270.526 240.629,267.673 239.500,264.800 243.147 C 264.580 243.427,263.320 244.482,262.000 245.493 C 260.680 246.503,258.293 248.536,256.695 250.009 C 238.939 266.386,209.629 272.636,182.953 265.736 C 169.479 262.250,148.552 246.391,143.188 235.600 C 142.095 233.400,141.000 231.420,140.755 231.200 C 139.492 230.063,136.640 222.612,133.405 212.000 C 132.221 208.115,132.257 182.780,133.452 179.000 C 133.973 177.350,134.796 174.650,135.279 173.000 C 140.327 155.774,156.393 137.067,172.573 129.578 C 175.399 128.270,178.205 127.200,178.809 127.200 C 179.412 127.200,180.128 126.840,180.400 126.400 C 180.672 125.960,181.701 125.600,182.687 125.600 C 183.673 125.600,184.822 125.275,185.240 124.878 C 187.166 123.047,210.244 121.816,216.800 123.194 C 231.492 126.283,246.105 132.409,254.029 138.800 C 255.666 140.120,259.559 143.270,262.680 145.800 C 270.347 152.015,269.199 152.403,282.956 138.953 C 295.933 126.266,295.786 124.874,280.231 113.100 C 276.815 110.515,273.304 107.757,272.428 106.971 C 270.762 105.476,250.441 95.380,245.600 93.643 C 244.060 93.091,242.080 92.342,241.200 91.980 C 239.614 91.326,238.528 91.069,230.800 89.517 C 219.347 87.217,199.338 86.518,188.800 88.049 " stroke="none" fill="#0086ff" fill-rule="evenodd"></path><path id="path2" d="M69.600 0.779 C 68.940 1.155,66.240 1.907,63.600 2.449 C 60.960 2.991,59.292 3.606,59.893 3.815 C 60.493 4.024,62.293 3.806,63.893 3.331 C 65.492 2.855,68.510 2.249,70.600 1.984 C 72.690 1.719,74.400 1.164,74.400 0.751 C 74.400 -0.173,71.236 -0.155,69.600 0.779 M176.797 1.997 C 177.829 3.095,178.855 3.811,179.078 3.588 C 179.530 3.137,176.396 -0.000,175.494 -0.000 C 175.179 -0.000,175.765 0.899,176.797 1.997 M222.536 1.855 C 221.581 2.871,220.811 4.220,220.824 4.852 C 220.840 5.602,221.167 5.445,221.766 4.400 C 222.271 3.520,223.249 2.379,223.941 1.865 C 224.632 1.351,224.989 0.723,224.735 0.469 C 224.481 0.214,223.492 0.838,222.536 1.855 M326.400 0.700 C 326.400 1.492,330.346 2.418,333.500 2.365 C 335.288 2.335,335.125 2.159,332.400 1.177 C 328.755 -0.136,326.400 -0.324,326.400 0.700 M336.400 3.200 C 336.672 3.640,337.683 4.005,338.647 4.012 C 340.862 4.026,345.482 5.631,352.304 8.756 C 355.239 10.100,357.855 11.200,358.118 11.200 C 360.762 11.200,379.241 27.653,383.600 33.889 C 384.480 35.147,385.574 36.587,386.031 37.089 C 387.291 38.470,394.400 53.500,394.400 54.783 C 394.400 55.400,394.760 56.128,395.200 56.400 C 396.572 57.248,396.099 55.505,393.097 48.639 C 383.936 27.689,366.837 12.140,344.860 4.777 C 337.284 2.239,335.614 1.928,336.400 3.200 M50.400 6.686 C 42.756 10.055,38.965 12.032,39.371 12.438 C 39.548 12.614,42.191 11.555,45.246 10.084 C 48.301 8.614,52.240 6.930,54.000 6.342 C 57.576 5.148,59.354 3.989,57.560 4.021 C 56.922 4.033,53.700 5.232,50.400 6.686 M179.535 20.000 C 179.535 28.580,179.653 32.090,179.796 27.800 C 179.940 23.510,179.940 16.490,179.796 12.200 C 179.653 7.910,179.535 11.420,179.535 20.000 M33.915 15.715 C 26.573 21.183,16.233 32.119,13.224 37.600 C 12.247 39.379,15.296 36.075,18.022 32.400 C 21.069 28.293,28.293 21.069,32.400 18.022 C 36.133 15.253,38.888 12.800,38.266 12.800 C 38.026 12.800,36.068 14.112,33.915 15.715 M220.803 34.449 C 220.801 35.136,221.534 36.486,222.431 37.449 L 224.062 39.200 273.592 39.200 C 327.303 39.200,328.004 39.249,337.286 43.653 C 347.549 48.522,355.168 57.106,358.828 67.924 L 360.800 73.753 360.800 200.000 L 360.800 326.247 358.828 332.076 C 355.168 342.894,347.549 351.478,337.286 356.347 C 328.004 360.751,327.303 360.800,273.592 360.800 L 224.062 360.800 222.431 362.551 C 221.534 363.514,220.801 364.864,220.803 365.551 C 220.805 366.238,221.513 365.640,222.378 364.222 L 223.949 361.645 276.175 361.422 L 328.400 361.200 333.534 359.346 C 346.027 354.836,356.643 343.607,360.297 331.036 C 362.290 324.179,362.290 75.821,360.297 68.964 C 356.643 56.393,346.027 45.164,333.534 40.654 L 328.400 38.800 276.175 38.578 L 223.949 38.355 222.378 35.778 C 221.513 34.360,220.805 33.762,220.803 34.449 M177.314 37.200 C 176.273 38.241,169.408 38.400,125.359 38.400 L 74.604 38.400 68.418 40.419 C 55.499 44.637,45.244 54.559,40.646 67.288 L 38.800 72.400 38.800 200.000 L 38.800 327.600 40.654 332.734 C 45.238 345.430,55.525 355.372,68.440 359.588 L 74.604 361.600 125.702 361.600 C 155.153 361.600,176.800 361.903,176.800 362.314 C 176.800 362.707,177.410 363.263,178.155 363.549 C 179.343 364.005,179.328 363.867,178.031 362.434 C 176.572 360.822,175.885 360.800,126.804 360.800 C 64.117 360.800,60.855 360.142,48.782 345.065 C 38.473 332.191,39.200 343.193,39.200 200.000 C 39.200 56.807,38.473 67.809,48.782 54.935 C 60.855 39.858,64.117 39.200,126.804 39.200 C 175.536 39.200,176.582 39.167,178.000 37.600 C 179.676 35.748,179.101 35.413,177.314 37.200 M8.467 46.483 C 4.575 54.685,3.162 59.012,4.683 58.072 C 5.187 57.761,5.600 56.814,5.600 55.970 C 5.600 55.125,7.211 51.117,9.181 47.064 C 11.150 43.011,12.598 39.531,12.398 39.331 C 12.197 39.131,10.429 42.349,8.467 46.483 M396.068 58.800 C 396.044 59.680,396.373 60.940,396.800 61.600 C 397.828 63.190,397.828 61.192,396.800 58.800 L 396.112 57.200 396.068 58.800 M2.108 64.400 C 1.324 67.480,0.487 70.810,0.248 71.800 C 0.009 72.790,0.173 73.600,0.613 73.600 C 1.558 73.600,2.374 70.910,2.389 67.747 C 2.395 66.508,2.783 64.780,3.250 63.906 C 3.718 63.032,3.973 61.526,3.816 60.559 C 3.643 59.485,2.978 60.980,2.108 64.400 M398.033 66.768 C 398.469 71.295,400.000 73.748,400.000 69.920 C 400.000 68.600,399.675 67.178,399.278 66.760 C 398.880 66.342,398.352 65.280,398.103 64.400 C 397.854 63.520,397.822 64.585,398.033 66.768 M189.600 86.768 C 180.251 88.240,170.571 90.563,171.893 91.019 C 172.493 91.226,174.293 91.020,175.893 90.561 C 190.033 86.507,214.207 86.115,231.600 89.657 C 238.875 91.139,240.731 91.274,237.087 90.058 C 226.266 86.446,202.229 84.781,189.600 86.768 M167.200 92.000 C 166.224 92.630,166.328 92.778,167.753 92.788 C 168.717 92.794,169.728 92.440,170.000 92.000 C 170.629 90.981,168.776 90.981,167.200 92.000 M241.240 91.837 C 241.658 92.187,243.440 92.950,245.200 93.533 C 249.848 95.071,270.558 105.292,272.428 106.971 C 273.304 107.757,276.815 110.515,280.231 113.100 C 295.786 124.874,295.933 126.266,282.956 138.953 C 269.199 152.403,270.347 152.015,262.680 145.800 C 259.559 143.270,255.666 140.120,254.029 138.800 C 249.903 135.472,236.138 128.423,230.597 126.801 C 228.068 126.061,225.173 125.128,224.162 124.727 C 223.152 124.327,221.352 124.026,220.162 124.059 C 218.973 124.091,221.240 125.001,225.200 126.080 C 237.952 129.557,251.934 137.361,262.270 146.770 C 269.004 152.899,269.393 152.801,281.103 142.011 C 292.784 131.247,294.660 128.914,293.939 126.041 C 292.797 121.491,276.344 107.755,263.815 100.893 C 254.981 96.054,238.273 89.351,241.240 91.837 M153.954 97.942 C 136.201 106.759,121.874 118.968,112.056 133.645 C 106.961 141.261,101.124 152.591,101.897 153.363 C 102.149 153.616,102.715 152.877,103.154 151.722 C 105.358 145.925,109.721 138.307,115.812 129.620 C 124.232 117.613,155.880 94.400,163.831 94.400 C 164.312 94.400,164.928 94.040,165.200 93.600 C 166.128 92.098,164.305 92.802,153.954 97.942 M193.877 123.012 C 193.369 123.336,198.544 123.620,205.376 123.645 C 212.209 123.670,217.124 123.426,216.299 123.102 C 214.333 122.329,195.071 122.252,193.877 123.012 M185.200 124.800 C 184.928 125.240,183.848 125.600,182.800 125.600 C 181.752 125.600,180.672 125.960,180.400 126.400 C 180.128 126.840,179.412 127.200,178.809 127.200 C 178.205 127.200,175.399 128.270,172.573 129.578 C 156.393 137.067,140.327 155.774,135.279 173.000 C 134.796 174.650,134.061 177.170,133.647 178.600 C 133.233 180.030,132.715 185.520,132.496 190.800 L 132.099 200.400 132.835 192.400 C 135.992 158.054,155.574 133.740,186.634 125.599 C 192.028 124.186,192.184 124.085,189.047 124.044 C 187.203 124.020,185.472 124.360,185.200 124.800 M99.247 160.000 C 92.972 180.491,92.670 206.330,98.449 228.393 C 100.328 235.569,101.536 238.294,101.576 235.447 C 101.589 234.483,101.280 233.497,100.888 233.255 C 100.497 233.013,99.983 231.641,99.746 230.207 C 99.509 228.773,98.926 225.980,98.449 224.000 C 95.167 210.366,94.276 189.795,96.438 177.600 C 97.101 173.860,97.861 169.262,98.128 167.382 C 98.394 165.502,98.924 163.770,99.306 163.534 C 99.688 163.299,100.000 162.119,100.000 160.913 C 100.000 159.707,100.394 158.326,100.875 157.845 C 101.356 157.364,101.600 156.302,101.417 155.485 C 101.225 154.626,100.311 156.528,99.247 160.000 M132.909 205.143 C 132.849 207.752,133.128 210.992,133.529 212.343 C 136.605 222.708,139.946 231.197,140.950 231.199 C 141.252 231.200,140.488 228.950,139.251 226.200 C 136.668 220.458,134.428 212.140,133.595 205.200 L 133.019 200.400 132.909 205.143 M141.600 232.528 C 141.600 240.457,168.347 261.939,182.953 265.740 C 192.401 268.199,212.084 269.648,215.998 268.172 C 217.401 267.643,214.423 267.406,205.998 267.377 C 179.578 267.287,158.769 256.836,145.134 236.809 C 143.190 233.953,141.600 232.027,141.600 232.528 M101.600 238.035 C 101.600 247.194,124.019 275.561,139.600 286.115 C 163.864 302.552,201.300 309.239,231.545 302.537 C 243.761 299.830,242.932 299.146,230.400 301.592 C 215.407 304.518,179.025 303.940,175.640 300.722 C 175.222 300.325,173.962 299.998,172.840 299.996 C 168.524 299.988,154.023 294.064,146.400 289.196 C 143.980 287.650,141.370 286.167,140.600 285.899 C 139.830 285.632,139.200 285.095,139.200 284.707 C 139.200 284.318,138.668 284.000,138.019 284.000 C 134.850 284.000,114.866 261.994,109.685 252.800 C 106.285 246.766,103.200 240.459,103.200 239.542 C 103.200 238.966,102.840 238.272,102.400 238.000 C 101.960 237.728,101.600 237.744,101.600 238.035 M262.673 243.783 C 260.103 245.863,257.280 248.239,256.400 249.062 C 249.169 255.828,233.774 263.657,223.200 265.947 C 218.859 266.887,218.490 267.083,220.962 267.136 C 222.592 267.171,224.752 266.886,225.762 266.502 C 226.773 266.119,229.040 265.347,230.800 264.787 C 238.645 262.293,251.055 255.211,256.695 250.009 C 258.293 248.536,260.680 246.503,262.000 245.493 C 263.320 244.482,264.580 243.427,264.800 243.147 C 267.673 239.500,270.526 240.629,278.000 248.373 C 290.713 261.545,292.000 263.087,292.000 265.152 C 292.000 267.301,291.594 267.796,285.073 273.600 C 278.794 279.188,276.877 280.664,269.918 285.263 C 259.244 292.317,252.812 295.439,241.600 299.005 C 240.840 299.246,240.737 299.513,241.321 299.734 C 245.061 301.143,268.755 288.403,280.800 278.505 C 296.511 265.594,296.501 265.888,281.790 251.082 C 269.175 238.384,269.289 238.428,262.673 243.783 M0.248 328.200 C 2.588 337.889,3.569 340.976,3.816 339.441 C 3.973 338.474,3.718 336.968,3.250 336.094 C 2.783 335.220,2.395 333.492,2.389 332.253 C 2.374 329.090,1.558 326.400,0.613 326.400 C 0.173 326.400,0.009 327.210,0.248 328.200 M398.993 328.534 C 398.660 329.047,398.207 331.207,397.987 333.334 C 397.766 335.460,397.795 336.660,398.051 336.000 C 398.307 335.340,398.883 334.044,399.330 333.119 C 400.258 331.200,399.953 327.052,398.993 328.534 M396.547 338.706 C 396.246 339.490,396.023 340.731,396.051 341.465 C 396.084 342.349,396.362 342.148,396.874 340.869 C 397.298 339.806,397.521 338.564,397.370 338.109 C 397.218 337.654,396.848 337.922,396.547 338.706 M4.333 343.681 C 5.073 346.708,11.925 361.142,12.398 360.669 C 12.598 360.469,11.150 356.989,9.181 352.936 C 7.211 348.883,5.600 344.875,5.600 344.030 C 5.600 343.186,5.187 342.239,4.683 341.928 C 4.031 341.525,3.930 342.029,4.333 343.681 M394.983 343.683 C 394.663 344.004,394.400 344.733,394.400 345.303 C 394.400 346.524,387.243 361.583,386.031 362.911 C 385.574 363.413,384.480 364.853,383.600 366.111 C 379.241 372.347,360.762 388.800,358.118 388.800 C 357.855 388.800,355.239 389.900,352.304 391.244 C 345.482 394.369,340.862 395.974,338.647 395.988 C 337.683 395.995,336.672 396.360,336.400 396.800 C 335.614 398.072,337.284 397.761,344.860 395.223 C 366.866 387.850,383.934 372.316,393.128 351.292 C 395.781 345.224,396.535 342.131,394.983 343.683 M13.217 362.400 C 16.798 368.992,30.916 383.107,37.600 386.776 C 39.379 387.753,36.075 384.704,32.400 381.978 C 28.293 378.931,21.069 371.707,18.022 367.600 C 15.284 363.908,12.257 360.633,13.217 362.400 M179.535 380.000 C 179.535 388.580,179.653 392.090,179.796 387.800 C 179.940 383.510,179.940 376.490,179.796 372.200 C 179.653 367.910,179.535 371.420,179.535 380.000 M39.200 387.655 C 39.200 388.289,53.699 395.001,56.501 395.663 C 59.760 396.433,57.939 394.973,54.000 393.658 C 52.240 393.070,48.281 391.377,45.203 389.895 C 39.107 386.960,39.200 386.995,39.200 387.655 M220.824 395.261 C 220.811 395.954,221.700 397.367,222.800 398.400 C 223.900 399.433,224.800 399.874,224.800 399.379 C 224.800 398.884,224.318 398.192,223.729 397.840 C 223.140 397.488,222.251 396.480,221.753 395.600 C 221.066 394.384,220.843 394.303,220.824 395.261 M62.000 397.222 C 63.760 397.802,66.169 398.305,67.353 398.339 C 68.537 398.372,69.728 398.760,70.000 399.200 C 70.626 400.213,74.400 400.255,74.400 399.249 C 74.400 398.836,72.690 398.286,70.600 398.028 C 68.510 397.769,65.694 397.207,64.343 396.779 C 62.992 396.350,61.192 396.038,60.343 396.084 C 59.494 396.130,60.240 396.642,62.000 397.222 M176.797 398.003 C 175.765 399.101,175.179 400.000,175.494 400.000 C 176.396 400.000,179.530 396.863,179.078 396.412 C 178.855 396.189,177.829 396.905,176.797 398.003 M328.200 398.165 C 326.082 398.573,325.767 400.005,327.800 399.988 C 328.570 399.981,330.640 399.457,332.400 398.823 L 335.600 397.670 332.800 397.744 C 331.260 397.785,329.190 397.974,328.200 398.165 " stroke="none" fill="#329cff" fill-rule="evenodd"></path><path id="path3" d="M66.400 0.800 C 65.461 1.407,65.669 1.578,67.353 1.588 C 68.537 1.594,69.728 1.240,70.000 0.800 C 70.631 -0.222,67.981 -0.222,66.400 0.800 M176.800 0.334 C 176.800 0.713,177.430 1.484,178.200 2.046 C 180.556 3.766,180.763 33.775,178.441 36.915 C 177.362 38.375,177.180 39.004,177.919 38.720 C 181.575 37.317,182.165 5.004,178.600 1.443 C 177.610 0.454,176.800 -0.045,176.800 0.334 M331.200 0.800 C 332.776 1.819,334.629 1.819,334.000 0.800 C 333.728 0.360,332.717 0.006,331.753 0.012 C 330.328 0.022,330.224 0.170,331.200 0.800 M55.463 3.915 C 34.319 11.149,17.774 25.609,8.035 45.366 C 5.087 51.346,1.540 61.754,1.655 64.086 C 1.685 64.699,2.600 62.203,3.688 58.539 C 11.520 32.157,32.204 11.655,59.200 3.517 C 62.500 2.523,64.480 1.702,63.600 1.693 C 62.720 1.685,59.058 2.685,55.463 3.915 M341.581 3.689 C 369.028 11.800,389.946 33.011,397.111 60.000 C 398.940 66.888,399.164 67.503,399.659 67.007 C 401.013 65.654,392.946 45.078,388.091 37.499 C 376.897 20.029,349.988 1.313,336.536 1.643 C 335.581 1.666,337.852 2.587,341.581 3.689 M220.175 19.622 C 219.999 35.773,220.535 39.200,223.238 39.200 C 223.648 39.200,223.358 38.469,222.592 37.576 C 221.403 36.189,221.138 33.592,220.775 19.776 L 220.350 3.600 220.175 19.622 M74.034 39.895 C 71.818 40.368,153.483 40.251,169.200 39.758 C 173.160 39.634,153.900 39.500,126.400 39.461 C 98.900 39.421,75.335 39.617,74.034 39.895 M276.000 39.978 L 327.600 40.400 332.812 42.432 C 344.100 46.834,351.266 53.469,356.516 64.377 C 357.992 67.445,359.200 69.476,359.200 68.892 C 359.200 62.301,347.166 48.317,337.600 43.793 C 327.891 39.201,327.641 39.184,273.761 39.378 L 224.400 39.556 276.000 39.978 M66.800 41.792 C 55.242 45.963,43.254 58.818,41.241 69.200 C 40.817 71.387,40.874 71.349,41.885 68.777 C 47.122 55.445,55.884 46.705,68.777 41.953 C 70.330 41.381,71.060 40.916,70.400 40.920 C 69.740 40.923,68.120 41.316,66.800 41.792 M0.576 66.665 C -0.381 69.099,-0.153 71.146,0.878 69.375 C 1.334 68.591,1.583 67.331,1.430 66.575 C 1.177 65.319,1.103 65.327,0.576 66.665 M359.718 74.000 C 359.986 76.200,360.339 78.150,360.503 78.333 C 361.129 79.035,360.652 73.121,359.959 71.600 C 359.469 70.523,359.390 71.307,359.718 74.000 M39.713 75.000 C 39.062 78.942,39.238 322.895,39.895 325.955 C 40.173 327.250,40.400 270.640,40.400 200.155 C 40.400 129.670,40.357 72.000,40.305 72.000 C 40.252 72.000,39.986 73.350,39.713 75.000 M191.200 85.670 C 154.491 90.382,120.365 113.359,104.912 143.768 C 101.918 149.660,103.080 148.632,106.824 142.076 C 140.713 82.747,220.368 67.567,277.200 109.606 C 291.623 120.275,295.924 126.013,292.793 130.410 C 291.578 132.116,274.275 148.620,271.267 150.943 C 271.083 151.084,271.277 151.200,271.697 151.200 C 273.118 151.200,294.402 130.269,294.868 128.414 C 295.576 125.594,293.364 122.206,287.228 116.713 C 260.814 93.064,224.658 81.376,191.200 85.670 M195.200 123.977 C 192.706 124.424,193.935 124.507,199.200 124.248 C 205.750 123.925,213.526 124.503,222.800 126.000 C 224.120 126.213,223.400 125.860,221.200 125.215 C 216.467 123.827,200.323 123.059,195.200 123.977 M180.623 127.495 C 164.723 132.977,148.926 146.026,142.727 158.800 C 141.659 161.000,141.239 162.120,141.793 161.289 C 142.347 160.457,144.215 157.615,145.944 154.972 C 154.584 141.767,168.600 131.702,185.200 126.782 C 188.720 125.739,190.880 124.869,190.000 124.850 C 189.120 124.830,184.901 126.021,180.623 127.495 M225.600 126.692 C 225.600 126.853,228.030 127.799,231.000 128.796 C 241.502 132.319,250.734 137.791,260.823 146.475 C 263.843 149.074,266.783 151.187,267.356 151.172 C 267.930 151.156,267.621 150.706,266.670 150.172 C 265.718 149.637,263.738 148.106,262.270 146.770 C 251.753 137.195,225.600 122.876,225.600 126.692 M100.157 154.946 C 97.590 161.630,94.351 175.335,94.475 178.986 C 94.517 180.204,95.195 177.780,95.982 173.600 C 97.607 164.967,99.541 158.007,101.735 152.887 C 102.563 150.954,103.087 149.220,102.899 149.033 C 102.712 148.845,101.477 151.506,100.157 154.946 M138.852 166.210 C 137.157 169.745,135.206 175.903,135.244 177.600 C 135.259 178.260,136.091 176.280,137.093 173.200 C 138.095 170.120,139.368 166.759,139.922 165.731 C 140.476 164.704,140.785 163.718,140.608 163.542 C 140.431 163.365,139.641 164.566,138.852 166.210 M133.860 182.927 C 126.127 228.309,159.036 267.255,205.200 267.353 C 219.040 267.382,233.844 264.351,237.999 260.636 C 238.439 260.243,236.320 260.855,233.291 261.995 C 180.556 281.844,126.842 240.859,134.373 186.516 C 135.366 179.351,134.957 176.489,133.860 182.927 M93.929 195.200 C 93.929 202.900,94.049 206.050,94.196 202.200 C 94.342 198.350,94.342 192.050,94.196 188.200 C 94.049 184.350,93.929 187.500,93.929 195.200 M94.498 211.748 C 94.352 215.553,98.066 232.600,98.867 231.800 C 99.065 231.601,98.648 229.174,97.939 226.407 C 97.230 223.639,96.187 218.635,95.622 215.287 C 95.049 211.887,94.552 210.325,94.498 211.748 M99.225 233.392 C 99.061 239.991,112.128 261.557,123.378 273.255 C 132.516 282.757,152.747 296.819,157.200 296.763 C 157.640 296.758,155.120 295.234,151.600 293.377 C 128.311 281.089,112.234 263.576,102.260 239.628 C 100.604 235.653,99.238 232.846,99.225 233.392 M265.578 240.536 C 264.490 241.271,261.440 243.728,258.800 245.995 C 254.182 249.962,247.490 254.745,241.600 258.288 C 240.060 259.215,239.170 259.979,239.623 259.987 C 240.635 260.003,254.193 251.200,256.400 249.093 C 268.390 237.646,268.446 237.650,281.790 251.082 C 294.991 264.368,295.313 265.270,289.000 271.275 C 271.676 287.753,253.144 297.884,232.133 302.362 C 228.320 303.175,226.100 303.873,227.200 303.913 C 237.175 304.275,259.246 295.032,274.665 284.033 C 297.411 267.809,297.703 266.726,283.459 251.496 C 271.695 238.919,269.743 237.722,265.578 240.536 M160.610 298.072 C 174.246 304.034,204.759 307.470,221.600 304.941 C 223.580 304.643,216.560 304.382,206.000 304.359 C 185.179 304.315,177.266 303.242,164.916 298.788 C 158.982 296.647,156.351 296.209,160.610 298.072 M360.128 322.900 C 360.058 323.835,359.810 325.815,359.579 327.300 C 359.193 329.772,359.230 329.834,360.017 328.028 C 360.489 326.943,360.736 324.963,360.566 323.628 C 360.383 322.193,360.204 321.895,360.128 322.900 M41.241 330.800 C 43.435 342.115,57.885 356.565,69.200 358.759 C 71.387 359.183,71.349 359.126,68.777 358.115 C 55.453 352.881,47.119 344.547,41.885 331.223 C 40.874 328.651,40.817 328.613,41.241 330.800 M0.025 330.800 C 0.025 331.680,0.373 332.940,0.800 333.600 C 1.442 334.594,1.575 334.525,1.575 333.200 C 1.575 332.320,1.227 331.060,0.800 330.400 C 0.158 329.406,0.025 329.475,0.025 330.800 M356.550 335.555 C 351.849 345.936,344.019 353.197,332.812 357.568 L 327.600 359.600 276.000 360.022 L 224.400 360.444 273.761 360.622 C 327.641 360.816,327.891 360.799,337.600 356.207 C 347.005 351.759,360.762 335.763,359.056 331.261 C 358.915 330.889,357.787 332.821,356.550 335.555 M398.865 333.685 C 398.660 334.298,397.871 337.140,397.111 340.000 C 389.946 366.989,369.028 388.200,341.581 396.311 C 337.852 397.413,335.581 398.334,336.536 398.357 C 349.988 398.687,376.897 379.971,388.091 362.501 C 392.946 354.922,401.013 334.346,399.659 332.993 C 399.427 332.761,399.070 333.073,398.865 333.685 M1.655 335.914 C 1.248 344.139,12.984 365.814,23.585 376.415 C 34.043 386.873,55.761 398.687,63.902 398.346 C 64.616 398.316,62.500 397.477,59.200 396.483 C 32.204 388.345,11.520 367.843,3.688 341.461 C 2.600 337.797,1.685 335.301,1.655 335.914 M74.034 360.105 C 75.335 360.383,98.900 360.579,126.400 360.539 C 153.900 360.500,173.160 360.366,169.200 360.242 C 153.483 359.749,71.818 359.632,74.034 360.105 M178.441 363.085 C 180.872 366.373,180.545 396.242,178.058 398.058 C 177.211 398.677,176.703 399.369,176.930 399.597 C 179.965 402.632,182.707 370.536,179.976 363.943 C 179.469 362.718,178.543 361.519,177.919 361.280 C 177.180 360.996,177.362 361.625,178.441 363.085 M221.201 362.686 C 220.170 364.260,220.004 367.202,220.201 380.486 L 220.436 396.400 220.618 380.351 C 220.787 365.444,220.916 364.177,222.431 362.551 C 223.328 361.588,223.697 360.800,223.250 360.800 C 222.803 360.800,221.881 361.649,221.201 362.686 M66.400 399.200 C 67.981 400.222,70.631 400.222,70.000 399.200 C 69.728 398.760,68.537 398.406,67.353 398.412 C 65.669 398.422,65.461 398.593,66.400 399.200 M331.200 399.200 C 330.224 399.830,330.328 399.978,331.753 399.988 C 332.717 399.994,333.728 399.640,334.000 399.200 C 334.629 398.181,332.776 398.181,331.200 399.200 " stroke="none" fill="#76beff" fill-rule="evenodd"></path><path id="path4" d="M55.873 2.721 C 48.103 5.371,40.682 8.827,38.337 10.890 C 37.642 11.500,36.775 12.000,36.410 12.000 C 33.158 12.000,12.000 33.158,12.000 36.410 C 12.000 36.775,11.494 37.642,10.876 38.337 C 7.641 41.973,-0.079 61.615,0.054 65.872 C 0.130 68.295,0.910 66.339,3.193 58.000 C 8.834 37.396,24.757 18.301,44.523 8.436 C 50.093 5.656,61.543 1.610,63.902 1.588 C 64.616 1.581,65.740 1.227,66.400 0.800 C 68.995 -0.877,63.459 0.133,55.873 2.721 M178.876 1.682 C 180.731 3.729,181.654 32.008,179.996 36.011 C 178.342 40.002,178.370 40.000,126.962 40.005 C 66.515 40.010,64.271 40.381,52.326 52.326 C 39.297 65.354,40.009 56.819,40.009 200.000 C 40.009 343.181,39.297 334.646,52.326 347.674 C 64.271 359.619,66.515 359.990,126.962 359.995 C 178.370 360.000,178.342 359.998,179.996 363.989 C 181.654 367.992,180.731 396.271,178.876 398.318 C 178.038 399.243,177.759 400.000,178.255 400.000 C 182.221 400.000,183.462 366.737,179.673 362.000 L 177.753 359.600 125.476 359.156 C 69.554 358.681,71.060 358.794,63.200 354.508 C 52.810 348.842,45.392 339.840,42.345 329.200 C 40.629 323.206,40.629 76.794,42.345 70.800 C 45.497 59.793,53.671 50.093,64.029 45.068 C 72.107 41.149,70.390 41.267,125.476 40.822 L 177.753 40.400 179.673 38.000 C 183.462 33.263,182.221 -0.000,178.255 -0.000 C 177.759 -0.000,178.038 0.757,178.876 1.682 M220.714 1.301 C 219.520 2.738,218.607 30.581,219.583 35.790 C 220.464 40.490,219.037 40.360,275.200 40.847 C 334.545 41.361,330.833 40.910,342.905 49.064 C 347.543 52.196,351.395 56.721,354.942 63.200 C 358.984 70.585,358.800 64.066,358.800 200.000 C 358.800 335.934,358.984 329.415,354.942 336.800 C 351.395 343.279,347.543 347.804,342.905 350.936 C 330.833 359.090,334.545 358.639,275.200 359.153 C 219.037 359.640,220.464 359.510,219.583 364.210 C 218.426 370.384,219.531 397.478,221.000 398.945 C 222.692 400.634,222.817 399.418,221.175 397.247 C 219.179 394.608,219.480 364.819,221.529 362.289 L 223.057 360.400 275.329 359.996 L 327.600 359.592 332.812 357.563 C 347.275 351.935,356.821 340.654,359.655 325.843 C 361.363 316.917,361.363 83.083,359.655 74.157 C 356.821 59.346,347.275 48.065,332.812 42.437 L 327.600 40.408 275.329 40.004 L 223.057 39.600 221.529 37.711 C 219.396 35.077,219.189 5.514,221.282 2.526 C 222.795 0.366,222.329 -0.641,220.714 1.301 M334.000 0.800 C 334.272 1.240,335.344 1.600,336.383 1.600 C 339.307 1.600,351.752 6.189,358.259 9.666 C 377.490 19.943,391.821 38.171,398.037 60.259 C 398.758 62.822,399.545 64.722,399.786 64.481 C 401.312 62.955,390.795 36.800,388.654 36.800 C 388.294 36.800,388.000 36.402,388.000 35.915 C 388.000 31.058,368.148 13.346,355.600 7.008 C 347.562 2.949,332.685 -1.327,334.000 0.800 M190.400 84.746 C 182.603 85.700,168.214 89.280,169.003 90.070 C 169.174 90.241,172.734 89.513,176.914 88.452 C 195.993 83.613,219.863 83.909,237.311 89.203 C 241.822 90.571,243.396 90.699,241.394 89.532 C 235.009 85.814,204.824 82.981,190.400 84.746 M164.000 91.164 C 163.340 91.532,159.340 93.457,155.111 95.440 C 146.765 99.355,135.342 106.422,130.630 110.585 C 122.354 117.897,119.437 120.891,114.798 126.833 C 107.939 135.616,106.789 137.601,99.990 152.400 C 85.673 183.563,91.322 232.623,112.636 262.236 C 123.855 277.823,151.860 299.200,161.061 299.200 C 161.745 299.200,162.501 299.517,162.741 299.904 C 162.980 300.292,163.992 300.796,164.988 301.025 C 165.985 301.253,168.835 302.003,171.322 302.690 C 185.996 306.744,217.630 307.708,231.600 304.526 C 252.248 299.824,269.620 290.737,286.647 275.734 C 298.096 265.645,297.990 264.920,282.788 249.400 C 269.717 236.056,269.388 235.953,261.446 242.662 C 240.998 259.937,227.194 265.577,205.326 265.594 C 175.532 265.617,150.687 249.754,140.178 224.000 C 131.473 202.667,134.096 174.227,146.449 156.000 C 171.734 118.692,222.495 114.608,259.680 146.889 C 269.167 155.124,269.667 155.014,284.015 141.557 C 298.992 127.512,299.173 125.853,286.909 115.089 C 276.548 105.995,253.402 92.000,248.723 92.000 C 248.061 92.000,247.126 91.606,246.645 91.125 C 246.164 90.644,245.121 90.375,244.328 90.528 C 243.527 90.682,245.894 91.955,249.643 93.386 C 270.898 101.505,296.638 121.363,294.897 128.299 C 294.522 129.791,287.268 137.250,275.465 148.280 C 270.492 152.926,267.972 152.628,260.916 146.555 C 211.376 103.917,142.268 125.662,134.402 186.363 C 128.662 230.655,160.615 266.640,205.600 266.545 C 227.462 266.499,240.867 261.244,259.368 245.468 C 269.614 236.731,269.599 236.727,283.192 251.221 C 297.752 266.747,297.491 267.752,274.665 284.033 C 222.299 321.386,146.682 310.148,112.220 259.892 C 87.746 224.202,87.027 170.484,110.541 134.400 C 122.020 116.784,145.982 98.145,165.000 92.039 C 166.650 91.509,168.000 90.924,168.000 90.738 C 168.000 90.165,165.268 90.456,164.000 91.164 M0.054 334.128 C -0.079 338.385,7.641 358.027,10.876 361.663 C 11.494 362.358,12.000 363.225,12.000 363.590 C 12.000 366.842,33.158 388.000,36.410 388.000 C 36.775 388.000,37.642 388.506,38.337 389.124 C 42.157 392.523,63.028 400.530,66.154 399.796 C 67.211 399.547,66.954 399.297,65.200 398.866 C 33.848 391.158,10.886 370.100,3.193 342.000 C 0.910 333.661,0.130 331.705,0.054 334.128 M398.037 339.741 C 391.821 361.829,377.490 380.057,358.259 390.334 C 351.752 393.811,339.307 398.400,336.383 398.400 C 335.344 398.400,334.272 398.760,334.000 399.200 C 332.685 401.327,347.562 397.051,355.600 392.992 C 368.148 386.654,388.000 368.942,388.000 364.085 C 388.000 363.598,388.294 363.200,388.654 363.200 C 390.795 363.200,401.312 337.045,399.786 335.519 C 399.545 335.278,398.758 337.178,398.037 339.741 " stroke="none" fill="#b0daff" fill-rule="evenodd"></path></g></svg>